<svg width="512" height="512" xmlns="http://www.w3.org/2000/svg">
 <g>
  <title>squarish</title>
  <path fill="#00A7CD" id="squarish" d="m450,54c0,0 -18,-18.1 -198,-18.1s-198,18.1 -198,18.1s-18.1,18 -18.1,198s18.1,198 18.1,198s18,17.89999 198,17.89999s198,-17.89999 198,-17.89999s17.89999,-17.89999 17.89999,-198s-17.89999,-198 -17.89999,-198zm-32.89999,363.10001c0,0 -15,14.89999 -165,14.89999s-164.99999,-14.89999 -164.99999,-14.89999s-15.10001,-15 -15.10001,-165s15.10001,-164.99999 15.10001,-164.99999s15,-15.10001 164.99999,-15.10001s165,15.10001 165,15.10001s14.89999,14.89999 14.89999,164.99999s-14.89999,165 -14.89999,165z"/>
 </g>
</svg>